<?xml version="1.0" encoding="UTF-8"?>
<svg id="_Слой_1" data-name="Слой 1" xmlns="http://www.w3.org/2000/svg" viewBox="0 0 2000 2000">
  <defs>
    <style>
      .cls-1, .cls-2 {
        fill: #fff;
      }

      .cls-2 {
        font-family: Verdana, Verdana;
        font-size: 336.5px;
      }
    </style>
  </defs>
  <g>
    <path class="cls-1" d="m704.71,1004h-49.04v-129.25h-145.82v129.25h-49.04v-286h49.19l-.15,117.2h145.82l.33-117.2h48.71v286Z"/>
    <path class="cls-1" d="m1010.93,865.96h-214.68c0,16.77,2.69,31.37,8.09,43.82,5.39,12.45,12.78,22.67,22.17,30.64,9.04,7.81,19.78,13.67,32.22,17.58,12.43,3.91,26.13,5.86,41.08,5.86,19.82,0,39.78-3.7,59.87-11.11,20.08-7.4,34.39-14.69,42.91-21.85h2.61v50.05c-16.52,6.51-33.39,11.96-50.61,16.36-17.22,4.39-35.3,6.59-54.26,6.59-48.35,0-86.08-12.25-113.21-36.74-27.13-24.49-40.69-59.28-40.69-104.37s13-79.99,39-106.2c26-26.2,60.21-39.31,102.65-39.31,39.3,0,69.6,10.74,90.91,32.23,21.3,21.48,31.95,52,31.95,91.55v24.9Zm-47.74-35.16c-.18-24.09-6.65-42.72-19.43-55.91s-32.22-19.78-58.3-19.78-47.17,7.24-62.73,21.73c-15.57,14.49-24.39,32.47-26.48,53.96h166.95Z"/>
  </g>
  <path class="cls-1" d="m1158.22,766.28v466.98h68.15v49.73h-196.33v-49.73h67.34v-466.98l-67.34-.28v-49h196.33v49l-68.15.28Z"/>
  <polyline class="cls-1" points="1360.79 1283 1360.95 765.87 1226.37 766 1226.37 717 1541.71 717 1541.71 766 1421.59 765.87 1421.44 1283"/>
  <text class="cls-2" transform="translate(442 1277.56)"><tspan x="0" y="0">без</tspan></text>
</svg>